<svg width="15" height="16" viewBox="0 0 15 16" fill="none" xmlns="http://www.w3.org/2000/svg">
<path id="Vector" d="M7.5 5.27273C5.99318 5.27273 4.77273 6.49318 4.77273 8C4.77273 9.50682 5.99318 10.7273 7.5 10.7273C9.00682 10.7273 10.2273 9.50682 10.2273 8C10.2273 6.49318 9.00682 5.27273 7.5 5.27273ZM13.5955 7.31818C13.441 5.93554 12.821 4.6465 11.8373 3.66275C10.8535 2.67899 9.56446 2.05899 8.18182 1.90455V1.18182C8.18182 0.806818 7.875 0.5 7.5 0.5C7.125 0.5 6.81818 0.806818 6.81818 1.18182V1.90455C5.43554 2.05899 4.1465 2.67899 3.16275 3.66275C2.17899 4.6465 1.55899 5.93554 1.40455 7.31818H0.681818C0.306818 7.31818 0 7.625 0 8C0 8.375 0.306818 8.68182 0.681818 8.68182H1.40455C1.55899 10.0645 2.17899 11.3535 3.16275 12.3373C4.1465 13.321 5.43554 13.941 6.81818 14.0955V14.8182C6.81818 15.1932 7.125 15.5 7.5 15.5C7.875 15.5 8.18182 15.1932 8.18182 14.8182V14.0955C9.56446 13.941 10.8535 13.321 11.8373 12.3373C12.821 11.3535 13.441 10.0645 13.5955 8.68182H14.3182C14.6932 8.68182 15 8.375 15 8C15 7.625 14.6932 7.31818 14.3182 7.31818H13.5955ZM7.5 12.7727C4.86136 12.7727 2.72727 10.6386 2.72727 8C2.72727 5.36136 4.86136 3.22727 7.5 3.22727C10.1386 3.22727 12.2727 5.36136 12.2727 8C12.2727 10.6386 10.1386 12.7727 7.5 12.7727Z" fill="#5438CD"/>
</svg>
