<svg width="51" height="52" viewBox="0 0 51 52" fill="none" xmlns="http://www.w3.org/2000/svg">
<path id="Subtract" fill-rule="evenodd" clip-rule="evenodd" d="M0 6.80792C0 3.29125 2.863 0.44043 6.39469 0.44043H44.6053C48.137 0.44043 51 3.29126 51 6.80793V45.6326C51 49.1493 48.137 52.0001 44.6053 52.0001H6.39469C2.863 52.0001 0 49.1493 0 45.6326V6.80792ZM7.21444 6.08718C9.80426 8.02138 11.4432 12.784 11.7303 13.8882C11.7577 13.9935 11.8842 14.0685 11.989 14.0381C14.6246 13.2744 32.4486 10.2917 39.6159 16.9027C32.9811 8.99016 23.3696 5.18146 7.30822 5.7775C7.15363 5.78324 7.09069 5.99475 7.21444 6.08718ZM9.65422 46.0207L9.65473 46.0198C10.6813 44.1662 13.1289 39.7467 13.4855 33.3927C13.4891 33.3296 13.534 33.2726 13.594 33.252C50.8883 20.3916 50.477 33.3416 35.2515 44.0812C35.1019 44.1866 34.9207 43.9941 35.0386 43.8545C42.8879 34.5536 34.7574 35.4985 9.66837 46.55C9.53652 46.6081 9.40108 46.4815 9.46981 46.3553C9.52427 46.2553 9.58599 46.1439 9.65395 46.0212L9.65422 46.0207ZM32.191 24.987C32.621 24.6572 32.7023 24.0413 32.3725 23.6113C32.0428 23.1813 31.4269 23.1001 30.9969 23.4298C27.8091 25.8745 25.1549 24.8713 24.3545 24.258C23.9243 23.9285 23.3085 24.01 22.9789 24.4402C22.6493 24.8703 22.7309 25.4862 23.161 25.8158C24.6136 26.9287 28.2482 28.0108 32.191 24.987ZM15.235 22.3762C16.4492 20.0737 20.2019 16.559 25.5 20.9206C23.483 20.6168 18.6062 20.4827 15.235 22.3762ZM28.3655 20.4707C30.098 18.5279 34.5861 16.0194 38.6791 21.5276C36.7945 20.7475 32.0933 19.444 28.3655 20.4707Z" fill="#5438CD"/>
</svg>
